#!OML:ASF E:\emotionWalksFemale\Project 1\Capture day 1\Session 1\Female1.ASF
:FULLY-SPECIFIED
:DEGREES
226
root 9.03601 16.1933 18.4258 181.062 -3.60773 -179.105
lowerback 11.4899 0.813024 1.98977
upperback -4.06427 1.40727 0.292824
thorax -10.8268 0.534426 -1.09337
lowerneck -4.0219 -3.31788 -7.90261
upperneck 4.16454 -4.3262 6.59905
head 2.43196 -2.13342 3.44399
rclavicle -6.37353e-015 -6.75868e-015
rhumerus -41.5648 11.3361 -91.5788
rradius 27.7991
rwrist 34.8207
rhand -4.59895 -55.0113
rfingers 7.12502
rthumb 21.1787 -83.8744
lclavicle -6.37353e-015 -6.75868e-015
lhumerus -38.5401 2.44367 82.8136
lradius 26.6814
lwrist -35.7425
lhand 6.55827 -26.5859
lfingers 7.12502
lthumb 31.8551 0.649007
rfemur -12.4577 7.12605 25.8914
rtibia 24.0192
rfoot 5.29616 -17.1879
rtoes -7.83869
lfemur -17.8925 -11.4023 -21.1337
ltibia 31.4835
lfoot 1.96938 1.18568
ltoes -31.7873
227
root 9.04156 16.0001 18.3854 180.68 -3.68681 -178.961
lowerback 12.1372 0.772279 2.13273
upperback -4.17421 1.39534 0.293345
thorax -11.3343 0.510196 -1.18501
lowerneck -3.88383 -3.35494 -7.8742
upperneck 4.03786 -4.38429 6.62199
head 2.36834 -2.16305 3.44478
rclavicle 4.9075e-016 8.84592e-015
rhumerus -41.5343 10.2451 -91.1257
rradius 27.5114
rwrist 35.5444
rhand -4.99673 -53.9888
rfingers 7.12502
rthumb 20.7965 -82.8943
lclavicle 4.9075e-016 8.84592e-015
lhumerus -38.9586 2.63843 82.5977
lradius 26.7741
lwrist -35.4712
lhand 5.3317 -27.2517
lfingers 7.12502
lthumb 30.6863 0.209112
rfemur -12.9904 5.87503 26.4301
rtibia 26.7042
rfoot 0.0779078 -16.9162
rtoes -5.18573
lfemur -18.6252 -9.86256 -21.3063
ltibia 34.5745
lfoot -2.43584 -0.551546
ltoes -31.5123
228
root 9.05264 15.8126 18.3462 180.136 -3.86297 -178.825
lowerback 12.1552 0.71981 2.06033
upperback -3.71142 1.33096 0.445861
thorax -10.8332 0.505461 -0.962025
lowerneck -4.14396 -3.41888 -8.09347
upperneck 3.64635 -4.41598 6.64708
head 2.29691 -2.17227 3.49086
rclavicle 1.74868e-014 1.0138e-014
rhumerus -40.5892 9.35143 -90.3834
rradius 27.2151
rwrist 36.236
rhand -5.21319 -53.5439
rfingers 7.12502
rthumb 20.5886 -82.472
lclavicle 1.74868e-014 1.0138e-014
lhumerus -38.4587 3.26676 82.5016
lradius 26.6071
lwrist -35.5501
lhand 3.48086 -28.4477
lfingers 7.12502
lthumb 28.9199 -0.670208
rfemur -13.3957 5.0173 26.9119
rtibia 29.2548
rfoot -4.00785 -17.3727
rtoes -4.4878
lfemur -19.2487 -8.83151 -21.3856
ltibia 37.4221
lfoot -6.4794 -1.25077
ltoes -28.8561
229
root 9.0628 15.6301 18.3055 179.496 -3.96909 -178.791
lowerback 12.4454 0.676319 1.9633
upperback -3.32422 1.27232 0.529278
thorax -10.5787 0.495432 -0.80723
lowerneck -4.24637 -3.33914 -8.3556
upperneck 3.16311 -4.27339 6.84582
head 2.15853 -2.09497 3.61523
rclavicle -3.45078e-015 1.12313e-014
rhumerus -39.89 8.65581 -89.87
rradius 27.0403
rwrist 36.3055
rhand -6.38878 -53.003
rfingers 7.12502
rthumb 19.4586 -82.0494
lclavicle -3.45078e-015 1.12313e-014
lhumerus -38.1945 3.92865 82.3247
lradius 26.5807
lwrist -35.4661
lhand 1.47331 -29.6085
lfingers 7.12502
lthumb 27.0008 -1.51824
rfemur -13.6414 4.34007 27.2686
rtibia 31.5403
rfoot -7.44771 -18.205
rtoes -2.37935
lfemur -19.688 -7.98603 -21.573
ltibia 40.0911
lfoot -10.3376 -1.37844
ltoes -29.3393
230
root 9.07284 15.4517 18.2653 179.008 -3.97393 -178.926
lowerback 12.7108 0.708575 1.67063
upperback -3.06261 1.27519 0.555785
thorax -10.4506 0.52082 -0.616844
lowerneck -4.26753 -3.32659 -8.28231
upperneck 2.8067 -4.23613 6.69385
head 2.03288 -2.07491 3.54745
rclavicle 9.87711e-016 -1.2921e-015
rhumerus -39.5004 7.95522 -89.431
rradius 26.963
rwrist 35.9212
rhand -8.07014 -52.4239
rfingers 7.12502
rthumb 17.8414 -81.6255
lclavicle 9.87711e-016 -1.2921e-015
lhumerus -38.0759 4.15991 82.3529
lradius 26.7698
lwrist -34.5044
lhand -0.0136579 -30.4441
lfingers 7.12502
lthumb 25.5773 -2.14148
rfemur -13.9185 3.87886 27.474
rtibia 33.5931
rfoot -11.0771 -19.1203
rtoes 0.744942
lfemur -20.1186 -7.18729 -21.9294
ltibia 42.556
lfoot -13.8258 -1.041
ltoes -31.7748
231
root 9.08555 15.2588 18.2273 178.866 -3.85345 -178.984
lowerback 13.122 0.778639 1.48173
upperback -3.1645 1.34418 0.507615
thorax -10.808 0.560074 -0.585138
lowerneck -4.50383 -3.40095 -7.88308
upperneck 3.0454 -4.32796 6.2433
head 2.13427 -2.12169 3.30693
rclavicle 2.68981e-015 5.36719e-015
rhumerus -39.5819 7.20708 -89.1925
rradius 27.0568
rwrist 35.2532
rhand -8.84219 -52.0936
rfingers 7.12502
rthumb 17.0983 -81.3612
lclavicle 2.68981e-015 5.36719e-015
lhumerus -38.3413 4.19221 82.2452
lradius 27.0752
lwrist -33.0898
lhand -1.28937 -30.9657
lfingers 7.12502
lthumb 24.3548 -2.49326
rfemur -14.3229 3.55751 27.8262
rtibia 35.3506
rfoot -14.2224 -20.5421
rtoes -0.372096
lfemur -20.9391 -6.48866 -22.1049
ltibia 44.9935
lfoot -16.8909 -0.641168
ltoes -31.546
232
root 9.0952 15.0958 18.1887 178.903 -3.55919 -178.86
lowerback 13.0425 0.904016 1.5618
upperback -3.10175 1.51799 0.447801
thorax -10.6839 0.63745 -0.731369
lowerneck -4.906 -3.44159 -7.55442
upperneck 3.10019 -4.36704 6.04366
head 2.2116 -2.13554 3.169
rclavicle -8.75274e-015 1.05356e-014
rhumerus -39.2823 6.63229 -89.0506
rradius 27.1977
rwrist 34.2202
rhand -9.27201 -51.7998
rfingers 7.12502
rthumb 16.6846 -81.1028
lclavicle -8.75274e-015 1.05356e-014
lhumerus -38.2487 4.40156 82.0376
lradius 27.3558
lwrist -31.6276
lhand -2.81595 -31.0471
lfingers 7.12502
lthumb 22.8906 -2.3858
rfemur -15.1073 3.58106 28.2288
rtibia 37.1698
rfoot -17.3375 -21.6653
rtoes 0.627401
lfemur -21.7825 -5.64953 -22.037
ltibia 47.1047
lfoot -19.8706 -0.493516
ltoes -29.5827
233
root 9.0972 14.9352 18.1523 178.68 -3.23795 -178.704
lowerback 13.1499 0.98798 1.78156
upperback -2.91738 1.66176 0.382631
thorax -10.5307 0.69267 -0.957701
lowerneck -5.02512 -3.41721 -7.43299
upperneck 2.7315 -4.33015 6.1603
head 2.10814 -2.11076 3.18558
rclavicle -4.97428e-015 4.02539e-015
rhumerus -38.8991 6.09481 -88.954
rradius 27.1818
rwrist 33.4942
rhand -10.1581 -51.5239
rfingers 7.12502
rthumb 15.8314 -80.8966
lclavicle -4.97428e-015 4.02539e-015
lhumerus -38.0887 4.689 81.8276
lradius 27.6355
lwrist -29.8955
lhand -4.20974 -30.9603
lfingers 7.12502
lthumb 21.5525 -2.13954
rfemur -15.6669 3.68727 28.6405
rtibia 39.0658
rfoot -18.8312 -23.0922
rtoes -2.32651
lfemur -22.281 -4.7037 -21.9875
ltibia 48.9885
lfoot -22.6893 -0.372816
ltoes -28.5473
234
root 9.09973 14.8349 18.1178 178.203 -3.02784 -178.544
lowerback 13.4623 0.930536 1.9235
upperback -2.6985 1.61871 0.455881
thorax -10.4706 0.666919 -0.953523
lowerneck -4.84455 -3.33872 -7.68379
upperneck 2.2331 -4.21684 6.40259
head 1.91768 -2.05368 3.32313
rclavicle 2.10898e-015 -1.2424e-015
rhumerus -38.7533 5.68776 -88.7492
rradius 27.3001
rwrist 33.4302
rhand -10.5284 -51.4674
rfingers 7.12502
rthumb 15.4748 -80.8681
lclavicle 2.10898e-015 -1.2424e-015
lhumerus -38.1538 5.55702 81.634
lradius 27.9446
lwrist -28.3098
lhand -5.89396 -31.0853
lfingers 7.12502
lthumb 19.9343 -2.08768
rfemur -16.134 3.68525 29.0408
rtibia 41.3791
rfoot -20.8399 -23.2245
rtoes 0.591628
lfemur -22.1493 -3.93247 -21.9235
ltibia 50.3382
lfoot -25.2071 -0.175806
ltoes -27.9663
235
root 9.10317 14.7287 18.0875 177.801 -2.89146 -178.4
lowerback 14.2027 0.917824 2.03518
upperback -2.81529 1.64305 0.456733
thorax -11.0329 0.661793 -1.03907
lowerneck -4.74202 -3.33536 -7.64664
upperneck 2.23684 -4.22502 6.4534
head 1.90133 -2.05836 3.33433
rclavicle 1.69511e-014 2.98177e-015
rhumerus -39.2034 5.05315 -88.6641
rradius 27.5874
rwrist 33.3844
rhand -10.6449 -51.4649
rfingers 7.12502
rthumb 15.3626 -80.8742
lclavicle 1.69511e-014 2.98177e-015
lhumerus -38.7201 6.19917 81.4402
lradius 28.4001
lwrist -26.6048
lhand -7.41959 -30.9615
lfingers 7.12502
lthumb 18.4672 -1.81809
rfemur -16.9635 3.50438 29.3586
rtibia 43.9551
rfoot -22.1742 -23.1982
rtoes 2.51898
lfemur -21.9842 -3.42205 -21.8505
ltibia 51.4774
lfoot -27.572 0.144146
ltoes -27.4201
236
root 9.10482 14.6122 18.0578 177.473 -2.74418 -178.358
lowerback 14.4261 0.906375 2.03387
upperback -2.67657 1.62998 0.46043
thorax -11.0093 0.656285 -1.03459
lowerneck -4.76572 -3.3054 -7.67767
upperneck 2.07362 -4.18056 6.53361
head 1.85196 -2.03474 3.36946
rclavicle 2.84557e-014 9.54166e-015
rhumerus -39.0277 5.01756 -88.765
rradius 27.6138
rwrist 32.8479
rhand -11.0167 -51.5981
rfingers 7.12502
rthumb 15.0044 -81.0344
lclavicle 2.84557e-014 9.54166e-015
lhumerus -38.7028 7.29982 81.2155
lradius 28.6033
lwrist -24.803
lhand -8.29613 -30.6883
lfingers 7.12502
lthumb 17.6239 -1.4671
rfemur -17.9941 3.16528 29.5293
rtibia 46.7483
rfoot -23.253 -23.2213
rtoes 2.39638
lfemur -21.8755 -3.1182 -21.8816
ltibia 52.4794
lfoot -29.7477 0.756407
ltoes -27.9033
237
root 9.1055 14.4955 18.0322 177.18 -2.59013 -178.371
lowerback 14.2488 0.964908 2.0026
upperback -2.33819 1.68387 0.415392
thorax -10.525 0.690438 -1.07004
lowerneck -4.65083 -3.38709 -7.72907
upperneck 1.7199 -4.29456 6.74352
head 1.7322 -2.09084 3.44866
rclavicle 5.88278e-015 5.46658e-016
rhumerus -38.3579 4.78716 -88.7794
rradius 27.3849
rwrist 32.6573
rhand -11.0198 -51.8639
rfingers 7.12502
rthumb 15.0014 -81.3006
lclavicle 5.88278e-015 5.46658e-016
lhumerus -38.1644 8.75736 80.8521
lradius 28.2842
lwrist -23.6738
lhand -9.21178 -31.1526
lfingers 7.12502
lthumb 16.7426 -1.85451
rfemur -18.9488 2.69844 29.631
rtibia 49.3769
rfoot -24.1948 -23.2562
rtoes 0.959853
lfemur -21.819 -2.90599 -21.9833
ltibia 53.5412
lfoot -31.7184 1.4022
ltoes -28.3421
238
root 9.10579 14.3948 18.0127 177.002 -2.54685 -178.437
lowerback 14.6058 0.998087 1.92844
upperback -2.4053 1.71918 0.34773
thorax -10.8075 0.704889 -1.11924
lowerneck -4.48836 -3.36312 -7.59682
upperneck 1.65251 -4.27687 6.67947
head 1.67267 -2.0844 3.40305
rclavicle -3.02265e-014 -6.90311e-015
rhumerus -38.2975 4.34607 -88.7632
rradius 27.189
rwrist 32.8206
rhand -10.5942 -52.2363
rfingers 7.12502
rthumb 15.4114 -81.6418
lclavicle -3.02265e-014 -6.90311e-015
lhumerus -38.3684 10.0765 80.3962
lradius 27.9876
lwrist -23.0537
lhand -9.97224 -32.1919
lfingers 7.12502
lthumb 16.0104 -2.83346
rfemur -19.857 2.09902 29.6445
rtibia 51.6882
rfoot -25.4098 -23.0435
rtoes 0.765048
lfemur -21.901 -2.74987 -22.1596
ltibia 54.6362
lfoot -33.0756 1.90238
ltoes -28.3398
239
root 9.10352 14.325 17.9853 176.865 -2.45734 -178.753
lowerback 14.6656 1.00522 1.59434
upperback -2.39404 1.66167 0.275648
thorax -10.8383 0.696044 -0.996532
lowerneck -4.56567 -3.32845 -7.6219
upperneck 1.86801 -4.22524 6.58608
head 1.75118 -2.05871 3.3768
rclavicle 4.30862e-015 -6.07225e-015
rhumerus -38.2868 4.48105 -88.9313
rradius 27.1834
rwrist 32.3994
rhand -10.1268 -52.8638
rfingers 7.12502
rthumb 15.8615 -82.2341
lclavicle 4.30862e-015 -6.07225e-015
lhumerus -38.5917 10.2808 80.8874
lradius 29.0367
lwrist -19.8312
lhand -7.05829 -28.5833
lfingers 7.12502
lthumb 18.8148 0.526721
rfemur -20.5028 1.44156 29.343
rtibia 53.5514
rfoot -26.644 -22.7373
rtoes 0.638943
lfemur -22.0568 -2.49514 -22.6163
ltibia 55.6673
lfoot -33.8376 2.4577
ltoes -29.2061
240
root 9.10116 14.2729 17.9528 176.693 -2.27588 -179.263
lowerback 14.5165 1.08083 1.06223
upperback -2.2688 1.64581 0.132269
thorax -10.6217 0.71983 -0.842313
lowerneck -4.55245 -3.31019 -7.76963
upperneck 1.88718 -4.20069 6.75028
head 1.76333 -2.04558 3.46386
rclavicle -9.82242e-015 -4.65902e-018
rhumerus -38.2337 4.88883 -89.3198
rradius 27.2227
rwrist 31.5095
rhand -10.1001 -53.3922
rfingers 7.12502
rthumb 15.8872 -82.7605
lclavicle -9.82242e-015 -4.65902e-018
lhumerus -38.7094 10.3633 81.3095
lradius 29.7309
lwrist -18.3188
lhand -5.70338 -26.9553
lfingers 7.12502
lthumb 20.1175 2.02312
rfemur -20.8618 0.880022 28.7987
rtibia 54.9484
rfoot -27.4467 -22.5568
rtoes -0.406273
lfemur -22.1901 -2.20272 -23.2499
ltibia 56.5661
lfoot -34.5135 2.78151
ltoes -30.0232
